<?xml version="1.0" encoding="UTF-8" standalone="no"?>
<!-- Created with Inkscape (http://www.inkscape.org/) -->

<svg
   xmlns:dc="http://purl.org/dc/elements/1.1/"
   xmlns:cc="http://creativecommons.org/ns#"
   xmlns:rdf="http://www.w3.org/1999/02/22-rdf-syntax-ns#"
   xmlns:svg="http://www.w3.org/2000/svg"
   xmlns="http://www.w3.org/2000/svg"
   xmlns:sodipodi="http://sodipodi.sourceforge.net/DTD/sodipodi-0.dtd"
   xmlns:inkscape="http://www.inkscape.org/namespaces/inkscape"
   width="274"
   height="182"
   viewBox="-0.3 -0.05 27.4 18.2"
   version="1.1"
   id="svg8"
   sodipodi:docname="Vakıfbank_logo.svg"
   inkscape:version="0.92.3 (2405546, 2018-03-11)">
  <defs
     id="defs2" />
  <sodipodi:namedview
     id="base"
     pagecolor="#00ffff"
     bordercolor="#666666"
     borderopacity="1.0"
     inkscape:pageopacity="0"
     inkscape:pageshadow="2"
     inkscape:zoom="0.49497475"
     inkscape:cx="32.254574"
     inkscape:cy="-82.928703"
     inkscape:document-units="mm"
     inkscape:current-layer="layer1"
     showgrid="false"
     inkscape:window-width="1920"
     inkscape:window-height="1001"
     inkscape:window-x="-9"
     inkscape:window-y="-9"
     inkscape:window-maximized="1"
     fit-margin-top="0"
     fit-margin-left="0"
     fit-margin-right="0"
     fit-margin-bottom="0" />
  <metadata
     id="metadata5">
    <rdf:RDF>
      <cc:Work
         rdf:about="">
        <dc:format>image/svg+xml</dc:format>
        <dc:type
           rdf:resource="http://purl.org/dc/dcmitype/StillImage" />
        <dc:title></dc:title>
      </cc:Work>
    </rdf:RDF>
  </metadata>
  <g
     inkscape:label="Layer 1"
     inkscape:groupmode="layer"
     id="layer1"
     transform="translate(-27.120262,-129.53205)">
    <g
       id="g697"
       transform="matrix(1.356331,0,0,1.356331,20.338607,122.74991)">
      <path
         id="path681"
         d="M 24.687,8.707 C 24.939,7.271 23.617,5.27 20.018,5.27 H 11.075 C 8.624,5.27 7.087,6.953 6.814,8.648 L 5,18.184 c 1.593,-0.004 12.089,0 12.067,0 h 0.682 c 3.759,-0.021 5.923,-0.865 6.318,-3.593 0.262,-1.836 -1.35,-3.021 -2.667,-3.273 1.332,-0.243 2.951,-0.696 3.287,-2.611 z"
         inkscape:connector-curvature="0"
         style="fill:#fbc34e" />
      <path
         id="path683"
         d="m 16.289,9.266 c -0.912,1.155 -4.227,5.164 -4.897,5.925 -1.497,1.703 -4.584,1.449 -4.605,1.406 0,-0.002 1.113,-5.265 1.474,-6.749 0.989,-4.035 4.401,-3.08 4.401,-3.08 0,0 -0.909,0.131 -1.551,0.95 -0.651,0.83 -1.389,4.874 -1.806,6.764 1.955,-2.285 4.635,-5.233 5.092,-5.785 1.948,-2.358 4.999,-2.033 4.999,-2.033 0,0 -1.188,0.166 -3.107,2.602 z"
         inkscape:connector-curvature="0"
         style="fill:#ffffff" />
      
    </g>
  </g>
</svg>
